<svg width="1522" height="350" viewBox="0 0 1522 350" fill="none" xmlns="http://www.w3.org/2000/svg">
<path d="M579.651 170.76H614.091V248.88C604.011 256.907 592.251 263.067 578.811 267.36C565.371 271.653 551.557 273.8 537.371 273.8C517.397 273.8 499.384 269.507 483.331 260.92C467.277 252.147 454.677 240.107 445.531 224.8C436.384 209.493 431.811 192.227 431.811 173C431.811 153.773 436.384 136.507 445.531 121.2C454.677 105.893 467.277 93.9467 483.331 85.36C499.571 76.5867 517.771 72.2 537.931 72.2C554.357 72.2 569.291 74.9067 582.731 80.32C596.171 85.7333 607.464 93.6667 616.611 104.12L593.651 126.52C578.717 111.587 560.704 104.12 539.611 104.12C525.797 104.12 513.477 107.013 502.651 112.8C492.011 118.587 483.611 126.707 477.451 137.16C471.477 147.613 468.491 159.56 468.491 173C468.491 186.067 471.477 197.827 477.451 208.28C483.611 218.733 492.011 226.947 502.651 232.92C513.477 238.893 525.704 241.88 539.331 241.88C554.637 241.88 568.077 238.52 579.651 231.8V170.76ZM725.94 272.96C710.82 272.96 697.193 269.693 685.06 263.16C672.926 256.627 663.406 247.573 656.5 236C649.78 224.24 646.42 210.987 646.42 196.24C646.42 181.493 649.78 168.333 656.5 156.76C663.406 145.187 672.926 136.133 685.06 129.6C697.193 123.067 710.82 119.8 725.94 119.8C741.246 119.8 754.966 123.067 767.1 129.6C779.233 136.133 788.66 145.187 795.38 156.76C802.286 168.333 805.74 181.493 805.74 196.24C805.74 210.987 802.286 224.24 795.38 236C788.66 247.573 779.233 256.627 767.1 263.16C754.966 269.693 741.246 272.96 725.94 272.96ZM725.94 243C738.82 243 749.46 238.707 757.86 230.12C766.26 221.533 770.46 210.24 770.46 196.24C770.46 182.24 766.26 170.947 757.86 162.36C749.46 153.773 738.82 149.48 725.94 149.48C713.06 149.48 702.42 153.773 694.02 162.36C685.806 170.947 681.7 182.24 681.7 196.24C681.7 210.24 685.806 221.533 694.02 230.12C702.42 238.707 713.06 243 725.94 243ZM924.048 119.8C942.902 119.8 958.022 125.307 969.408 136.32C980.795 147.333 986.488 163.667 986.488 185.32V271H951.488V189.8C951.488 176.733 948.408 166.933 942.248 160.4C936.088 153.68 927.315 150.32 915.928 150.32C903.048 150.32 892.875 154.24 885.408 162.08C877.942 169.733 874.208 180.84 874.208 195.4V271H839.208V121.48H872.528V140.8C878.315 133.893 885.595 128.667 894.368 125.12C903.142 121.573 913.035 119.8 924.048 119.8ZM1172.82 197.08C1172.82 199.507 1172.63 202.96 1172.26 207.44H1054.94C1056.99 218.453 1062.31 227.227 1070.9 233.76C1079.67 240.107 1090.5 243.28 1103.38 243.28C1119.8 243.28 1133.34 237.867 1143.98 227.04L1162.74 248.6C1156.02 256.627 1147.52 262.693 1137.26 266.8C1126.99 270.907 1115.42 272.96 1102.54 272.96C1086.11 272.96 1071.64 269.693 1059.14 263.16C1046.63 256.627 1036.92 247.573 1030.02 236C1023.3 224.24 1019.94 210.987 1019.94 196.24C1019.94 181.68 1023.2 168.613 1029.74 157.04C1036.46 145.28 1045.7 136.133 1057.46 129.6C1069.22 123.067 1082.47 119.8 1097.22 119.8C1111.78 119.8 1124.75 123.067 1136.14 129.6C1147.71 135.947 1156.67 145 1163.02 156.76C1169.55 168.333 1172.82 181.773 1172.82 197.08ZM1097.22 147.8C1086.02 147.8 1076.5 151.16 1068.66 157.88C1061 164.413 1056.34 173.187 1054.66 184.2H1139.5C1138 173.373 1133.43 164.6 1125.78 157.88C1118.12 151.16 1108.6 147.8 1097.22 147.8ZM1297.53 271L1259.17 219.2L1220.53 271H1181.89L1240.13 195.12L1184.41 121.48H1223.33L1260.01 170.48L1296.69 121.48H1334.49L1278.49 194.56L1337.01 271H1297.53ZM1417.23 119.8C1439.25 119.8 1456.05 125.12 1467.63 135.76C1479.39 146.213 1485.27 162.08 1485.27 183.36V271H1452.23V252.8C1447.93 259.333 1441.77 264.373 1433.75 267.92C1425.91 271.28 1416.39 272.96 1405.19 272.96C1393.99 272.96 1384.19 271.093 1375.79 267.36C1367.39 263.44 1360.85 258.12 1356.19 251.4C1351.71 244.493 1349.47 236.747 1349.47 228.16C1349.47 214.72 1354.41 203.987 1364.31 195.96C1374.39 187.747 1390.16 183.64 1411.63 183.64H1450.27V181.4C1450.27 170.947 1447.09 162.92 1440.75 157.32C1434.59 151.72 1425.35 148.92 1413.03 148.92C1404.63 148.92 1396.32 150.227 1388.11 152.84C1380.08 155.453 1373.27 159.093 1367.67 163.76L1353.95 138.28C1361.79 132.307 1371.21 127.733 1382.23 124.56C1393.24 121.387 1404.91 119.8 1417.23 119.8ZM1412.47 247.48C1421.24 247.48 1428.99 245.52 1435.71 241.6C1442.61 237.493 1447.47 231.707 1450.27 224.24V206.88H1414.15C1393.99 206.88 1383.91 213.507 1383.91 226.76C1383.91 233.107 1386.43 238.147 1391.47 241.88C1396.51 245.613 1403.51 247.48 1412.47 247.48Z" fill="#002965"/>
<mask id="mask0_103_71" style="mask-type:alpha" maskUnits="userSpaceOnUse" x="0" y="43" width="360" height="231">
<path d="M289.214 127.188C287.664 104.921 262.361 83.902 236.024 83.3261C231.058 83.1294 226.094 83.7467 221.358 85.1497C219.664 85.7597 217.799 85.8265 216.059 85.3397C214.319 84.8529 212.804 83.8403 211.753 82.4623C203.871 70.2011 192.641 60.0945 179.201 53.1669C165.761 46.2393 150.589 42.7372 135.223 43.0154C111.301 43.5289 88.5145 52.5951 71.6047 68.3272C54.6948 84.0594 44.9647 105.245 44.4394 127.476C44.4394 129.779 45.4722 138.897 39.3786 141.777C27.2151 147.557 17.0631 156.422 10.0988 167.345C3.13453 178.267 -0.356981 190.8 0.0288445 203.491C0.0833595 222.159 8.08773 240.048 22.2926 253.249C36.4975 266.449 55.7479 273.888 75.8366 273.938H283.43C303.519 273.888 322.769 266.449 336.974 253.249C351.179 240.048 359.183 222.159 359.238 203.491C359.238 171.05 329.286 136.306 297.269 134.098C295.364 133.765 293.598 132.941 292.173 131.719C290.749 130.497 289.723 128.926 289.214 127.188Z" fill="url(#paint0_linear_103_71)"/>
</mask>
<g mask="url(#mask0_103_71)">
<rect width="92.107" height="360.283" transform="matrix(0.940666 0.339335 -0.337368 0.941373 74.2563 -72.1541)" fill="#C31F1F"/>
<rect width="92.107" height="360.283" transform="matrix(0.940666 0.339335 -0.337368 0.941373 159.842 -41.28)" fill="#CA393A"/>
<rect width="92.107" height="360.283" transform="matrix(0.940666 0.339335 -0.337368 0.941373 245.427 -10.4064)" fill="#D15354"/>
<rect width="92.107" height="360.283" transform="matrix(0.940666 0.339335 -0.337368 0.941373 331.012 20.4678)" fill="#D86D6F"/>
</g>
<defs>
<linearGradient id="paint0_linear_103_71" x1="0.0289077" y1="158.477" x2="359.238" y2="158.477" gradientUnits="userSpaceOnUse">
<stop stop-color="#C42121"/>
<stop offset="1" stop-color="#D86C6E"/>
</linearGradient>
</defs>
</svg>
